<?xml version="1.0" encoding="UTF-8"?>
<svg width="24px" height="24px" viewBox="0 0 24 24" version="1.1" xmlns="http://www.w3.org/2000/svg">
    <g stroke="none" stroke-width="1" fill="none" fill-rule="evenodd">
        <path d="M12,6v3l4-4l-4-4v3c-4.42,0-8,3.58-8,8c0,1.57,0.46,3.03,1.24,4.26L6.7,14.8c-0.45-0.83-0.7-1.79-0.7-2.8
            c0-3.31,2.69-6,6-6z M18.76,7.74L17.3,9.2c0.44,0.84,0.7,1.79,0.7,2.8c0,3.31-2.69,6-6,6v-3l-4,4l4,4v-3c4.42,0,8-3.58,8-8
            C20,10.43,19.54,8.97,18.76,7.74z" fill="currentColor"/>
    </g>
</svg> 